# xmcd
#
# Track frame offsets: 
#        150
#        1368
#        15140
#        31307
#        46133
#        66472
#        82472
#        93503
#        124127
#        140760
#        163861
#        185483
#        209998
#
# Disc length: 3185 seconds
#
# Revision: 0
# Processed by: cddbd v1.5.2PL0 Copyright (c) Steve Scherf et al.
# Submitted via: ExactAudioCopy v0.99pb4
#
DISCID=bd0c6f0d
DTITLE=Chris Rea - Live in Oxford 2008 CD1
DYEAR=2008
DGENRE=Blues
TTITLE0=Intro
TTITLE1=Dirty Old Town
TTITLE2=008 Jimmy Bond
TTITLE3=Indian Arab
TTITLE4=Russian Roulette
TTITLE5=BB Was A Comanche
TTITLE6=It´s Behind You
TTITLE7=I Can´t Wait For Love
TTITLE8=Legacy Blues
TTITLE9=Where The Blues Comes From
TTITLE10=Josephine
TTITLE11=Easy Rider
TTITLE12=Julia
EXTD=
EXTT0=
EXTT1=
EXTT2=
EXTT3=
EXTT4=
EXTT5=
EXTT6=
EXTT7=
EXTT8=
EXTT9=
EXTT10=
EXTT11=
EXTT12=
PLAYORDER=
